HIERARCHY
ROOT Hips
{
  OFFSET 0.00 0.00 0.00
  CHANNELS 6 Xposition Yposition Zposition Zrotation Xrotation Yrotation
  JOINT Spine
  {
    OFFSET 0.00 12.00 0.00
    CHANNELS 3 Zrotation Xrotation Yrotation
    JOINT Chest
    {
      OFFSET 0.00 14.00 0.00
      CHANNELS 3 Zrotation Xrotation Yrotation
      JOINT Neck
      {
        OFFSET 0.00 18.00 0.00
        CHANNELS 3 Zrotation Xrotation Yrotation
        JOINT Head
        {
          OFFSET 0.00 8.00 0.00
          CHANNELS 3 Zrotation Xrotation Yrotation
          End Site
          {
            OFFSET 0.00 10.00 0.00
          }
        }
      }
      JOINT LeftUpperArm
      {
        OFFSET 8.00 14.00 0.00
        CHANNELS 3 Zrotation Xrotation Yrotation
        JOINT LeftForearm
        {
          OFFSET 0.00 -26.00 0.00
          CHANNELS 3 Zrotation Xrotation Yrotation
          JOINT LeftHand
          {
            OFFSET 0.00 -24.00 0.00
            CHANNELS 3 Zrotation Xrotation Yrotation
            End Site
            {
              OFFSET 0.00 -8.00 0.00
            }
          }
        }
      }
      JOINT RightUpperArm
      {
        OFFSET -8.00 14.00 0.00
        CHANNELS 3 Zrotation Xrotation Yrotation
        JOINT RightForearm
        {
          OFFSET 0.00 -26.00 0.00
          CHANNELS 3 Zrotation Xrotation Yrotation
          JOINT RightHand
          {
            OFFSET 0.00 -24.00 0.00
            CHANNELS 3 Zrotation Xrotation Yrotation
            End Site
            {
              OFFSET 0.00 -8.00 0.00
            }
          }
        }
      }
    }
  }
  JOINT LeftThigh
  {
    OFFSET 9.00 0.00 0.00
    CHANNELS 3 Zrotation Xrotation Yrotation
    JOINT LeftShin
    {
      OFFSET 0.00 -42.00 0.00
      CHANNELS 3 Zrotation Xrotation Yrotation
      JOINT LeftFoot
      {
        OFFSET 0.00 -40.00 0.00
        CHANNELS 3 Zrotation Xrotation Yrotation
        End Site
        {
          OFFSET 0.00 -6.00 0.00
        }
      }
    }
  }
  JOINT RightThigh
  {
    OFFSET -9.00 0.00 0.00
    CHANNELS 3 Zrotation Xrotation Yrotation
    JOINT RightShin
    {
      OFFSET 0.00 -42.00 0.00
      CHANNELS 3 Zrotation Xrotation Yrotation
      JOINT RightFoot
      {
        OFFSET 0.00 -40.00 0.00
        CHANNELS 3 Zrotation Xrotation Yrotation
        End Site
        {
          OFFSET 0.00 -6.00 0.00
        }
      }
    }
  }
}

MOTION
Frames: 27
Frame Time: 0.033333
0.0000 108.3068 25.5592 0.0000 0.0000 0.0000 0.0000 -6.0000 0.0000 0.0000 2.0000 0.0000 0.0000 0.0000 0.0000 0.0000 0.0000 0.0000 0.0000 65.0000 0.0000 0.0000 -15.0000 0.0000 0.0000 0.0000 0.0000 0.0000 65.0000 0.0000 0.0000 -15.0000 0.0000 0.0000 0.0000 0.0000 0.0000 -70.0000 0.0000 0.0000 85.0000 0.0000 0.0000 -15.0000 0.0000 0.0000 -70.0000 0.0000 0.0000 85.0000 0.0000 0.0000 -15.0000 0.0000
0.0000 109.6830 29.2133 0.0000 0.0000 0.0000 0.0000 -6.0000 0.0000 0.0000 2.0000 0.0000 0.0000 0.0000 0.0000 0.0000 0.0000 0.0000 0.0000 65.0000 0.0000 0.0000 -15.0000 0.0000 0.0000 0.0000 0.0000 0.0000 65.0000 0.0000 0.0000 -15.0000 0.0000 0.0000 0.0000 0.0000 0.0000 -70.0000 0.0000 0.0000 85.0000 0.0000 0.0000 -15.0000 0.0000 0.0000 -70.0000 0.0000 0.0000 85.0000 0.0000 0.0000 -15.0000 0.0000
0.0000 109.9693 32.8674 0.0000 0.0000 0.0000 0.0000 -6.0000 0.0000 0.0000 2.0000 0.0000 0.0000 0.0000 0.0000 0.0000 0.0000 0.0000 0.0000 65.0000 0.0000 0.0000 -15.0000 0.0000 0.0000 0.0000 0.0000 0.0000 65.0000 0.0000 0.0000 -15.0000 0.0000 0.0000 0.0000 0.0000 0.0000 -70.0000 0.0000 0.0000 85.0000 0.0000 0.0000 -15.0000 0.0000 0.0000 -70.0000 0.0000 0.0000 85.0000 0.0000 0.0000 -15.0000 0.0000
0.0000 109.1655 36.5216 0.0000 0.0000 0.0000 0.0000 -6.0000 0.0000 0.0000 2.0000 0.0000 0.0000 0.0000 0.0000 0.0000 0.0000 0.0000 0.0000 65.0000 0.0000 0.0000 -15.0000 0.0000 0.0000 0.0000 0.0000 0.0000 65.0000 0.0000 0.0000 -15.0000 0.0000 0.0000 0.0000 0.0000 0.0000 -70.0000 0.0000 0.0000 85.0000 0.0000 0.0000 -15.0000 0.0000 0.0000 -70.0000 0.0000 0.0000 85.0000 0.0000 0.0000 -15.0000 0.0000
0.0000 107.2718 40.1757 0.0000 0.0000 0.0000 0.0000 -6.0000 0.0000 0.0000 2.0000 0.0000 0.0000 0.0000 0.0000 0.0000 0.0000 0.0000 0.0000 65.0000 0.0000 0.0000 -15.0000 0.0000 0.0000 0.0000 0.0000 0.0000 65.0000 0.0000 0.0000 -15.0000 0.0000 0.0000 0.0000 0.0000 0.0000 -70.0000 0.0000 0.0000 85.0000 0.0000 0.0000 -15.0000 0.0000 0.0000 -70.0000 0.0000 0.0000 85.0000 0.0000 0.0000 -15.0000 0.0000
0.0000 104.2880 43.8298 0.0000 0.0000 0.0000 0.0000 -6.0000 0.0000 0.0000 2.0000 0.0000 0.0000 0.0000 0.0000 0.0000 0.0000 0.0000 0.0000 65.0000 0.0000 0.0000 -15.0000 0.0000 0.0000 0.0000 0.0000 0.0000 65.0000 0.0000 0.0000 -15.0000 0.0000 0.0000 0.0000 0.0000 0.0000 -35.0000 0.0000 0.0000 25.0000 0.0000 0.0000 10.0000 0.0000 0.0000 -35.0000 0.0000 0.0000 25.0000 0.0000 0.0000 10.0000 0.0000
0.0000 100.2143 47.4839 0.0000 0.0000 0.0000 0.0000 -6.0000 0.0000 0.0000 2.0000 0.0000 0.0000 0.0000 0.0000 0.0000 0.0000 0.0000 0.0000 65.0000 0.0000 0.0000 -15.0000 0.0000 0.0000 0.0000 0.0000 0.0000 65.0000 0.0000 0.0000 -15.0000 0.0000 0.0000 0.0000 0.0000 0.0000 -35.0000 0.0000 0.0000 25.0000 0.0000 0.0000 10.0000 0.0000 0.0000 -35.0000 0.0000 0.0000 25.0000 0.0000 0.0000 10.0000 0.0000
0.0000 95.0505 51.1380 0.0000 0.0000 0.0000 0.0000 -6.0000 0.0000 0.0000 2.0000 0.0000 0.0000 0.0000 0.0000 0.0000 0.0000 0.0000 0.0000 65.0000 0.0000 0.0000 -15.0000 0.0000 0.0000 0.0000 0.0000 0.0000 65.0000 0.0000 0.0000 -15.0000 0.0000 0.0000 0.0000 0.0000 0.0000 -35.0000 0.0000 0.0000 25.0000 0.0000 0.0000 10.0000 0.0000 0.0000 -35.0000 0.0000 0.0000 25.0000 0.0000 0.0000 10.0000 0.0000
0.0000 88.7968 54.7921 0.0000 0.0000 0.0000 0.0000 -6.0000 0.0000 0.0000 2.0000 0.0000 0.0000 0.0000 0.0000 0.0000 0.0000 0.0000 0.0000 65.0000 0.0000 0.0000 -15.0000 0.0000 0.0000 0.0000 0.0000 0.0000 65.0000 0.0000 0.0000 -15.0000 0.0000 0.0000 0.0000 0.0000 0.0000 -35.0000 0.0000 0.0000 25.0000 0.0000 0.0000 10.0000 0.0000 0.0000 -35.0000 0.0000 0.0000 25.0000 0.0000 0.0000 10.0000 0.0000
0.0000 81.4530 58.4462 0.0000 0.0000 0.0000 0.0000 -6.0000 0.0000 0.0000 2.0000 0.0000 0.0000 0.0000 0.0000 0.0000 0.0000 0.0000 0.0000 65.0000 0.0000 0.0000 -15.0000 0.0000 0.0000 0.0000 0.0000 0.0000 65.0000 0.0000 0.0000 -15.0000 0.0000 0.0000 0.0000 0.0000 0.0000 -35.0000 0.0000 0.0000 25.0000 0.0000 0.0000 10.0000 0.0000 0.0000 -35.0000 0.0000 0.0000 25.0000 0.0000 0.0000 10.0000 0.0000
0.0000 75.7009 60.0000 0.0000 0.0000 0.0000 0.0000 0.0000 0.0000 0.0000 2.0000 0.0000 0.0000 0.0000 0.0000 0.0000 0.0000 0.0000 0.0000 -10.0000 0.0000 0.0000 -15.0000 0.0000 0.0000 0.0000 0.0000 0.0000 -10.0000 0.0000 0.0000 -15.0000 0.0000 0.0000 0.0000 0.0000 0.0000 -34.0685 0.0000 0.0000 63.2904 0.0000 0.0000 -29.2219 0.0000 0.0000 -34.0685 0.0000 0.0000 63.2904 0.0000 0.0000 -29.2219 0.0000
0.0000 71.7009 60.0000 0.0000 0.0000 0.0000 0.0000 0.0000 0.0000 0.0000 2.0000 0.0000 0.0000 0.0000 0.0000 0.0000 0.0000 0.0000 0.0000 -10.0000 0.0000 0.0000 -15.0000 0.0000 0.0000 0.0000 0.0000 0.0000 -10.0000 0.0000 0.0000 -15.0000 0.0000 0.0000 0.0000 0.0000 0.0000 -39.0680 0.0000 0.0000 73.2453 0.0000 0.0000 -34.1772 0.0000 0.0000 -39.0680 0.0000 0.0000 73.2453 0.0000 0.0000 -34.1772 0.0000
0.0000 67.7009 60.0000 0.0000 0.0000 0.0000 0.0000 0.0000 0.0000 0.0000 2.0000 0.0000 0.0000 0.0000 0.0000 0.0000 0.0000 0.0000 0.0000 -10.0000 0.0000 0.0000 -15.0000 0.0000 0.0000 0.0000 0.0000 0.0000 -10.0000 0.0000 0.0000 -15.0000 0.0000 0.0000 0.0000 0.0000 0.0000 -43.5657 0.0000 0.0000 82.1485 0.0000 0.0000 -38.5828 0.0000 0.0000 -43.5657 0.0000 0.0000 82.1485 0.0000 0.0000 -38.5828 0.0000
0.0000 66.0000 60.0000 0.0000 0.0000 0.0000 0.0000 0.0000 0.0000 0.0000 2.0000 0.0000 0.0000 0.0000 0.0000 0.0000 0.0000 0.0000 0.0000 -10.0000 0.0000 0.0000 -15.0000 0.0000 0.0000 0.0000 0.0000 0.0000 -10.0000 0.0000 0.0000 -15.0000 0.0000 0.0000 0.0000 0.0000 0.0000 -45.3674 0.0000 0.0000 85.6988 0.0000 0.0000 -40.3314 0.0000 0.0000 -45.3674 0.0000 0.0000 85.6988 0.0000 0.0000 -40.3314 0.0000
0.0000 66.0000 60.0000 0.0000 0.0000 0.0000 0.0000 0.0000 0.0000 0.0000 2.0000 0.0000 0.0000 0.0000 0.0000 0.0000 0.0000 0.0000 0.0000 -10.0000 0.0000 0.0000 -15.0000 0.0000 0.0000 0.0000 0.0000 0.0000 -10.0000 0.0000 0.0000 -15.0000 0.0000 0.0000 0.0000 0.0000 0.0000 -45.3674 0.0000 0.0000 85.6988 0.0000 0.0000 -40.3314 0.0000 0.0000 -45.3674 0.0000 0.0000 85.6988 0.0000 0.0000 -40.3314 0.0000
0.0000 66.0000 60.0000 0.0000 0.0000 0.0000 0.0000 0.0000 0.0000 0.0000 2.0000 0.0000 0.0000 0.0000 0.0000 0.0000 0.0000 0.0000 0.0000 -10.0000 0.0000 0.0000 -15.0000 0.0000 0.0000 0.0000 0.0000 0.0000 -10.0000 0.0000 0.0000 -15.0000 0.0000 0.0000 0.0000 0.0000 0.0000 -45.3674 0.0000 0.0000 85.6988 0.0000 0.0000 -40.3314 0.0000 0.0000 -45.3674 0.0000 0.0000 85.6988 0.0000 0.0000 -40.3314 0.0000
0.0000 66.0000 60.0000 0.0000 0.0000 0.0000 0.0000 0.0000 0.0000 0.0000 2.0000 0.0000 0.0000 0.0000 0.0000 0.0000 0.0000 0.0000 0.0000 -10.0000 0.0000 0.0000 -15.0000 0.0000 0.0000 0.0000 0.0000 0.0000 -10.0000 0.0000 0.0000 -15.0000 0.0000 0.0000 0.0000 0.0000 0.0000 -45.3674 0.0000 0.0000 85.6988 0.0000 0.0000 -40.3314 0.0000 0.0000 -45.3674 0.0000 0.0000 85.6988 0.0000 0.0000 -40.3314 0.0000
0.0000 66.0000 60.0000 0.0000 0.0000 0.0000 0.0000 0.0000 0.0000 0.0000 2.0000 0.0000 0.0000 0.0000 0.0000 0.0000 0.0000 0.0000 0.0000 -10.0000 0.0000 0.0000 -15.0000 0.0000 0.0000 0.0000 0.0000 0.0000 -10.0000 0.0000 0.0000 -15.0000 0.0000 0.0000 0.0000 0.0000 0.0000 -45.3674 0.0000 0.0000 85.6988 0.0000 0.0000 -40.3314 0.0000 0.0000 -45.3674 0.0000 0.0000 85.6988 0.0000 0.0000 -40.3314 0.0000
0.0000 66.0000 60.0000 0.0000 0.0000 0.0000 0.0000 0.0000 0.0000 0.0000 2.0000 0.0000 0.0000 0.0000 0.0000 0.0000 0.0000 0.0000 0.0000 -10.0000 0.0000 0.0000 -15.0000 0.0000 0.0000 0.0000 0.0000 0.0000 -10.0000 0.0000 0.0000 -15.0000 0.0000 0.0000 0.0000 0.0000 0.0000 -45.3674 0.0000 0.0000 85.6988 0.0000 0.0000 -40.3314 0.0000 0.0000 -45.3674 0.0000 0.0000 85.6988 0.0000 0.0000 -40.3314 0.0000
0.0000 66.0000 60.0000 0.0000 0.0000 0.0000 0.0000 0.0000 0.0000 0.0000 2.0000 0.0000 0.0000 0.0000 0.0000 0.0000 0.0000 0.0000 0.0000 -10.0000 0.0000 0.0000 -15.0000 0.0000 0.0000 0.0000 0.0000 0.0000 -10.0000 0.0000 0.0000 -15.0000 0.0000 0.0000 0.0000 0.0000 0.0000 -45.3674 0.0000 0.0000 85.6988 0.0000 0.0000 -40.3314 0.0000 0.0000 -45.3674 0.0000 0.0000 85.6988 0.0000 0.0000 -40.3314 0.0000
0.0000 66.1044 60.0000 0.0000 0.0000 0.0000 0.0000 0.0000 0.0000 0.0000 2.0000 0.0000 0.0000 0.0000 0.0000 0.0000 0.0000 0.0000 0.0000 -10.0000 0.0000 0.0000 -15.0000 0.0000 0.0000 0.0000 0.0000 0.0000 -10.0000 0.0000 0.0000 -15.0000 0.0000 0.0000 0.0000 0.0000 0.0000 -45.2584 0.0000 0.0000 85.4843 0.0000 0.0000 -40.2259 0.0000 0.0000 -45.2584 0.0000 0.0000 85.4843 0.0000 0.0000 -40.2259 0.0000
0.0000 67.4968 60.0000 0.0000 0.0000 0.0000 0.0000 0.0000 0.0000 0.0000 2.0000 0.0000 0.0000 0.0000 0.0000 0.0000 0.0000 0.0000 0.0000 -10.0000 0.0000 0.0000 -15.0000 0.0000 0.0000 0.0000 0.0000 0.0000 -10.0000 0.0000 0.0000 -15.0000 0.0000 0.0000 0.0000 0.0000 0.0000 -43.7850 0.0000 0.0000 82.5811 0.0000 0.0000 -38.7961 0.0000 0.0000 -43.7850 0.0000 0.0000 82.5811 0.0000 0.0000 -38.7961 0.0000
0.0000 68.8689 60.0000 0.0000 0.0000 0.0000 0.0000 0.0000 0.0000 0.0000 2.0000 0.0000 0.0000 0.0000 0.0000 0.0000 0.0000 0.0000 0.0000 -10.0000 0.0000 0.0000 -15.0000 0.0000 0.0000 0.0000 0.0000 0.0000 -10.0000 0.0000 0.0000 -15.0000 0.0000 0.0000 0.0000 0.0000 0.0000 -42.2934 0.0000 0.0000 79.6355 0.0000 0.0000 -37.3421 0.0000 0.0000 -42.2934 0.0000 0.0000 79.6355 0.0000 0.0000 -37.3421 0.0000
0.0000 70.2022 60.0000 0.0000 0.0000 0.0000 0.0000 0.0000 0.0000 0.0000 2.0000 0.0000 0.0000 0.0000 0.0000 0.0000 0.0000 0.0000 0.0000 -10.0000 0.0000 0.0000 -15.0000 0.0000 0.0000 0.0000 0.0000 0.0000 -10.0000 0.0000 0.0000 -15.0000 0.0000 0.0000 0.0000 0.0000 0.0000 -40.8016 0.0000 0.0000 76.6833 0.0000 0.0000 -35.8817 0.0000 0.0000 -40.8016 0.0000 0.0000 76.6833 0.0000 0.0000 -35.8817 0.0000
0.0000 71.4787 60.0000 0.0000 0.0000 0.0000 0.0000 0.0000 0.0000 0.0000 2.0000 0.0000 0.0000 0.0000 0.0000 0.0000 0.0000 0.0000 0.0000 -10.0000 0.0000 0.0000 -15.0000 0.0000 0.0000 0.0000 0.0000 0.0000 -10.0000 0.0000 0.0000 -15.0000 0.0000 0.0000 0.0000 0.0000 0.0000 -39.3292 0.0000 0.0000 73.7636 0.0000 0.0000 -34.4345 0.0000 0.0000 -39.3292 0.0000 0.0000 73.7636 0.0000 0.0000 -34.4345 0.0000
0.0000 72.6811 60.0000 0.0000 0.0000 0.0000 0.0000 0.0000 0.0000 0.0000 2.0000 0.0000 0.0000 0.0000 0.0000 0.0000 0.0000 0.0000 0.0000 -10.0000 0.0000 0.0000 -15.0000 0.0000 0.0000 0.0000 0.0000 0.0000 -10.0000 0.0000 0.0000 -15.0000 0.0000 0.0000 0.0000 0.0000 0.0000 -37.8975 0.0000 0.0000 70.9196 0.0000 0.0000 -33.0221 0.0000 0.0000 -37.8975 0.0000 0.0000 70.9196 0.0000 0.0000 -33.0221 0.0000
0.0000 73.7931 60.0000 0.0000 0.0000 0.0000 0.0000 0.0000 0.0000 0.0000 2.0000 0.0000 0.0000 0.0000 0.0000 0.0000 0.0000 0.0000 0.0000 -10.0000 0.0000 0.0000 -15.0000 0.0000 0.0000 0.0000 0.0000 0.0000 -10.0000 0.0000 0.0000 -15.0000 0.0000 0.0000 0.0000 0.0000 0.0000 -36.5296 0.0000 0.0000 68.1979 0.0000 0.0000 -31.6683 0.0000 0.0000 -36.5296 0.0000 0.0000 68.1979 0.0000 0.0000 -31.6683 0.0000
